<?xml version="1.0" encoding="utf-8"?>
<!-- Generator: Adobe Illustrator 22.0.0, SVG Export Plug-In . SVG Version: 6.00 Build 0)  -->
<svg version="1.1" id="Layer_1" xmlns="http://www.w3.org/2000/svg" xmlns:xlink="http://www.w3.org/1999/xlink" x="0px" y="0px"
	 viewBox="0 0 96 73" style="enable-background:new 0 0 96 73;" xml:space="preserve">
<style type="text/css">
	.st0{fill:#FFB600;}
</style>
<title>logo</title>
<g id="XMLID_2571_">
	<path id="XMLID_2635_" class="st0" d="M78.6,4.2C78.3,4,78,4,77.7,4.2c-2.4,1.7-3.3,4.2-3.8,5.9c-0.4,1.3-1,2.1-2,2.6
		c-2.5,1.1-6.1-0.7-6.2-0.7c-0.1-0.1-0.2-0.1-0.4-0.2l-0.4-3.2c1.5-0.6,2.4-2,2.2-3.7c-0.2-1.9-2-3.3-3.9-3c-0.2,0-0.5,0.1-0.7,0.2
		c-0.9-1.1-2.3-1.7-3.8-1.6c-1.5,0.2-2.7,1.1-3.3,2.4c-0.2,0-0.5,0-0.7,0c-1.9,0.2-3.3,2-3,3.9c0.2,1.6,1.4,2.8,3,3l0.2,1.4
		c-1.3-0.7-2.4-0.9-3.3-0.5c-0.9,0.4-1.3,1.4-1.3,1.9c-0.4,2.2-0.3,4.1,0.1,5.8c-2.4-0.6-8.9-1.5-13.2,3.2c0,0-1.1,1.2-1.9,3.3
		c-0.1,0.1-0.1,0.2-0.1,0.3c0,0,0,0,0,0c-0.1,0.3-0.2,0.7-0.3,1c-0.5,1.2-1.8,2.9-5,2.9c-0.4,0-0.7,0.3-0.7,0.7s0.3,0.7,0.7,0.7
		c2.2,0,3.6-0.7,4.7-1.5c0,0.7,0.1,1.5,0.2,2.4c0,0-0.1,0.1-0.1,0.1c-0.2,0.2-4.3,5.8-4.1,10.8c0,0.2,0.1,0.4,0.3,0.6
		c0.1,0.1,1.7,1.3,4.2,1.3c1,0,2.1-0.2,3.3-0.7c0.3-0.1,0.5-0.5,0.4-0.9c-0.1-0.5-0.3-1.7-0.2-2.7c0.5,1.2,0.9,2.6,0.6,3.7
		c-0.1,0.3,0.1,0.7,0.4,0.8c0.1,0,1.7,0.8,3.9,0.8c1.1,0,2.4-0.2,3.7-0.8c0.2-0.1,0.4-0.3,0.4-0.5c0.1-0.2,0-0.5-0.1-0.6
		c0,0-2.9-3.7-2.5-7.5c1.2,0.4,3.7,1,6.3,1c0.4,0,0.7,0,1.1,0c-0.7,1.4-1.7,3.8-1.3,5.6c0,0.2,0.1,0.3,0.3,0.4
		c0.1,0.1,1.4,0.9,3.2,0.9c0.9,0,2-0.2,3.2-0.9c0.2-0.1,0.4-0.4,0.4-0.7c0-0.7,0-1.5,0.1-2.1c0.2,0.8,0.3,1.6,0.2,2.2
		c-0.1,0.4,0.1,0.8,0.5,0.9c0.1,0,1.4,0.4,3,0.4c1.5,0,3.2-0.3,4.7-1.5c0.3-0.2,0.4-0.6,0.2-0.9c0-0.1-4.4-7.4-2.9-12.4
		c0.1-0.4,1.9-4.7,7.5-6c0.3-0.1,0.5-0.3,0.6-0.7c0-0.3-0.2-0.6-0.5-0.7c-0.1,0-1-0.4-2.1-0.7c0.5-0.1,1-0.2,1.4-0.2
		c0.5-0.1,1-0.1,1.4-0.2c1.7-0.3,3.1-1.6,4.1-3.5c0.8-1.5,1.2-3.1,1.4-4.2c0.4-3.4,2-6,2-6c0.1-0.1,0.1-0.2,0.1-0.4
		C79.9,5.1,78.9,4.4,78.6,4.2z M56.3,9.1c0-0.4-0.4-0.7-0.8-0.6c-1.1,0.1-2-0.7-2.1-1.8c-0.1-1.1,0.7-2.1,1.8-2.2
		c0.3,0,0.5,0,0.8,0.1c0.2,0.1,0.4,0,0.6-0.1c0.2-0.1,0.3-0.3,0.3-0.4c0.3-1.1,1.2-1.8,2.3-2c1.1-0.1,2.2,0.4,2.7,1.4
		c0.1,0.2,0.3,0.3,0.4,0.4c0.2,0.1,0.4,0,0.6-0.1c0.2-0.1,0.5-0.2,0.8-0.3c1.1-0.1,2.1,0.7,2.2,1.8c0.1,1.1-0.6,2-1.7,2.2
		c-0.4,0.1-0.7,0.4-0.6,0.8l0.4,3.1c-3.3-0.8-6.1,0.4-7.1,1c0,0-0.1-0.1-0.1-0.1L56.3,9.1z M37.2,42.4c-2.5,0.9-4.4,0-5.1-0.4
		c0-3.3,2.1-6.9,3.2-8.6c0.4,1.3,1,2.6,1.9,4c0,0,0,0,0,0c0.1,0.2,0.3,0.5,0.5,0.8C36.9,39.6,37.1,41.4,37.2,42.4z M56.8,41.8
		c-1.9,0.9-3.6,0.3-4.2,0c-0.2-1.7,1.1-4.3,1.7-5.3c0.7-0.2,1.4-0.4,2.1-0.7c0.4,0.6,0.7,1.3,1,2C56.8,38.8,56.8,40.7,56.8,41.8z
		 M76.3,12.2c-0.2,1.5-1.4,5.8-4.3,6.4c-0.4,0.1-0.9,0.2-1.4,0.2c-1.3,0.2-2.9,0.4-4.4,1.2c0,0,0,0,0,0c0,0,0,0-0.1,0c0,0,0,0-0.1,0
		c0,0,0,0-0.1,0c0,0,0,0,0,0.1c0,0,0,0,0,0.1c0,0,0,0,0,0.1c0,0,0,0,0,0.1c0,0,0,0,0,0.1c0,0,0,0,0,0.1c0,0,0,0,0,0.1c0,0,0,0,0,0
		c0,0,0,0,0,0c0,0,0,0.1,0,0.1c0,0,0,0,0,0.1c0,0,0,0,0,0.1c0,0,0,0,0,0.1c0,0,0,0,0,0c0,0,0,0,0,0c0,0,0,0,0,0.1c0,0,0,0,0,0.1
		c0,0,0,0,0,0c0,0,0,0,0.1,0c0,0,0,0,0.1,0c0,0,0,0,0.1,0c0,0,0,0,0.1,0c0,0,0,0,0.1,0c0,0,0,0,0.1,0c0,0,0.1,0,0.1,0c0,0,0,0,0,0
		c0.6,0,1.5,0.2,2.4,0.5c-4.8,2-6.4,6.1-6.4,6.3c0,0,0,0,0,0c-1.5,4.8,1.6,11.1,2.7,13c-1.8,1.1-4.1,0.8-5.2,0.6
		c0.2-3.3-3.2-8.3-3.7-8.9c-0.2-0.3-0.7-0.4-1-0.2c-0.3,0.2-0.4,0.7-0.2,1c0.1,0.2,0.3,0.4,0.5,0.7c-3.5,1.6-8.4,0.4-10.2-0.2
		c0.1-0.2,0.2-0.4,0.3-0.6c0.2-0.4,0-0.8-0.3-1c-0.4-0.2-0.8,0-1,0.3c-2,4.1,0.4,8.5,1.5,10.3c-2.2,0.7-4.2,0.2-5.1-0.1
		c0.3-3-2.1-6.4-2.4-6.7c-2.5-4-2.7-7.3-2.1-9.7c0.3-0.7,0.4-1.3,0.4-1.4c0.7-1.7,1.5-2.7,1.6-2.8c4.5-5,12.3-2.7,12.6-2.6
		c1.2,3.5,3.4,5.4,3.5,5.5c0.1,0.1,0.3,0.2,0.5,0.2c0,0,0,0,0,0c1.9-0.1,3.4-2.3,3.6-2.6c0.2-0.3,0.1-0.8-0.2-1
		c-0.3-0.2-0.8-0.1-1,0.2c-0.3,0.4-1.2,1.6-2.1,1.9c-0.9-1-4.5-5-3.4-11.4c0,0,0,0,0-0.1c0,0,0.1-0.5,0.5-0.7c0.3-0.1,1.1-0.2,2.9,1
		l0,0.1l0.1,0c0.3,0.2,0.6,0.4,0.9,0.6c0.3,0.2,0.6,0.2,0.9,0c0,0,3.8-2.6,8-0.5c0.2,0.1,4.3,2.1,7.4,0.7c1.4-0.6,2.4-1.8,2.8-3.5
		c0.4-1.4,1.1-3.4,2.8-4.8c0.1,0.1,0.2,0.2,0.2,0.2C77.9,6.7,76.7,9.1,76.3,12.2z"/>
	<g id="XMLID_2607_">
		<g id="XMLID_2631_">
			<path id="XMLID_2632_" class="st0" d="M14.9,53c-0.4,1.1-0.9,2.7-1.3,4.7c-0.4,2-0.6,3.7-0.6,5.1c0,0.6,0.1,1.1,0.2,1.5
				c0,0.1-0.1,0.1-0.4,0.1c-0.9,0-1.8-0.5-1.8-1.6c0-1.5,1-4.9,2.9-10.5c-2.7,0.2-4.5,0.3-5.7,0.3c-2.2,0-3.2-0.4-3.2-1.2v0
				c0,0,0-0.1,0-0.1c0.1-0.5,0.4-0.8,1-1.1c0.6-0.3,1.3-0.4,2-0.4c0.3,0,0.6,0,1,0.1c0.4,0.1,0.6,0.2,0.6,0.3c0,0.1,0,0.1,0,0.1
				c-0.5-0.1-0.9-0.1-1.2-0.1c-1.6,0-2.8,0.5-2.7,0.7c0,0.1,0.3,0.2,0.8,0.2c0.6,0,2.8-0.2,6.6-0.7c3.8-0.5,6.5-0.7,8.2-0.7
				c1.7,0,2.6,0.5,2.6,1.4c0,0.5-0.3,1.2-0.9,1.9c0-0.9-0.9-1.2-2.9-1.2c-1,0-2.7,0.1-5,0.3L14.9,53z M17.3,64.7c-0.1,0-0.2,0-0.3,0
				c-0.5,0-0.8-0.2-0.9-0.7c-0.1-0.5-0.2-0.8-0.2-1.4c0-0.4,0-0.7,0.1-1.1c-0.4,0.7-0.8,1-1.1,1c-0.1,0-0.3-0.1-0.4-0.2
				c0.7-0.7,1.2-1.6,1.7-2.8c0.2-1.4,0.7-3.8,1.5-7.2c1,0,1.5,0.4,1.5,1.3c0,0.9-0.7,2.7-0.7,2.8c0,0.1-0.1,0.4-0.2,0.9
				c-0.1,0.5-0.2,0.9-0.3,1.2c-0.1,0.3-0.1,0.7-0.2,1l0.1,0c0.5-1.2,1-2.3,1.6-3.1c0.6-0.9,1.1-1.3,1.4-1.3c0.2,0,0.4,0.1,0.7,0.4
				c0.3,0.3,0.4,0.5,0.4,0.8l-0.1,0.3c-0.2,0.7-0.7,2.5-0.7,3.8c0,0.9,0.2,1.4,0.7,1.4c0.3,0,0.7-0.2,1-0.6c0.3-0.4,0.5-0.8,0.7-1.2
				l0.2-0.6c0.2,0,0.3,0.1,0.3,0.3c0,0.7-0.4,2-1.3,3.1c-0.4,0.5-0.9,0.8-1.4,0.8c-1.3,0-1.9-1-1.9-2.9c0-0.7,0.1-1.5,0.3-2.3
				c0.2-0.9,0.4-1.5,0.6-1.9c-0.2,0-0.5,0.5-1,1.4c-0.5,1-1,2.1-1.5,3.4c-0.5,1.3-0.8,2.3-0.8,3.1V64.7z"/>
		</g>
		<g id="XMLID_2627_">
			<path id="XMLID_2628_" class="st0" d="M27.8,61.3c-0.5,1.8-1.2,2.7-2.1,2.7c-1.3,0-1.9-1.2-1.9-2.9c0-1.3,0.3-2.4,0.9-3.5
				c0.6-1.1,1.3-1.7,2.1-1.7c0.7,0,1.2,0.2,1.6,0.7c0.1-0.2,0.1-0.4,0.1-0.6c1,0.1,1.4,0.5,1.4,1.3c0,0.2-0.1,0.6-0.3,1.3
				c-0.2,0.7-0.3,1.4-0.3,2.1c0,0.9,0.3,1.3,0.8,1.3c0.3,0,0.7-0.2,1-0.6c0.3-0.4,0.5-0.8,0.6-1.2l0.2-0.6c0.2,0,0.3,0.1,0.3,0.3
				c0,0.6-0.3,1.4-0.8,2.4c-0.5,1-1.1,1.5-1.8,1.5C28.6,63.7,28,62.9,27.8,61.3L27.8,61.3z M27.5,56.9c-0.5,0-0.9,0.5-1.4,1.6
				c-0.4,1.1-0.7,2-0.7,2.9c0,0.7,0.2,1.1,0.5,1.1c0.5,0,0.9-0.5,1.3-1.6c0.4-1,0.7-2.2,0.9-3.6C28.2,57,27.9,56.9,27.5,56.9z"/>
		</g>
		<g id="XMLID_2623_">
			<path id="XMLID_2624_" class="st0" d="M36,59.6c0.2,0,0.3,0.1,0.3,0.3c0,0.7-0.5,2.2-1.4,3.3C34.4,63.7,34,64,33.5,64
				c-1.2,0-1.8-0.9-1.8-2.8c0-1.2,0.3-2.7,0.6-4.1c0.1-0.7,0.2-1.2,0.3-1.3c1.2,0.2,1.5,0.5,1.5,1.3c0,0.2-0.1,0.7-0.4,1.7
				c-0.2,0.9-0.4,1.8-0.4,2.5c0,0.8,0.2,1.2,0.7,1.2c0.3,0,0.7-0.2,1-0.7c0.3-0.5,0.5-1,0.7-1.4L36,59.6z M34.1,55.1
				c-0.4,0-1.3-0.1-1.3-1.9c0-0.9,0.2-1.3,0.6-1.4c0,0,0.1,0,0.2,0c0.3,0,0.7,0.1,1,0.3c0.4,0.2,0.5,0.4,0.5,0.7v0.1
				C34.9,54.3,34.4,55.1,34.1,55.1L34.1,55.1z"/>
		</g>
		<g id="XMLID_2619_">
			<path id="XMLID_2620_" class="st0" d="M68.4,56.6c-0.7,4.7-1.9,7.1-3.5,7.1c-1.1,0-1.7-0.9-1.8-2.3l-0.1,0
				c-0.5,1.8-1.2,2.7-2.1,2.7c-1.1,0-1.7-0.8-1.9-2.3c-0.7,2.5-1.6,3.8-2.6,3.8c-1.1,0-1.6-1-1.6-3.1c0-1.3,0.2-3.2,0.7-5.8
				c0.5-2.6,0.7-4.1,0.7-4.5c0-0.2,0-0.3-0.1-0.3c-0.1,0-0.3,0.2-0.9,1.2c-0.3,0.5-0.6,1.1-1,1.9c-0.7,1.6-2,4.6-3.3,8.5h-0.1
				c-0.3,0-0.7-0.1-1.1-0.3c-0.5-0.2-0.8-0.9-0.8-1.8c0-0.1,0-0.2,0-0.3c0.1-1.3,0.4-3.3,1-6c0.6-2.7,0.9-4.1,0.9-4.5
				c0-0.2,0-0.3-0.1-0.3c-0.4,0-1.2,1.5-2.4,4.4c-1.2,2.9-2.4,6.2-3.6,9.8c0,0-0.7-0.1-1.3-0.5c-0.3-0.3-0.7-0.8-0.7-1.4
				c0-0.3,0.1-0.6,0.2-0.9c1.4-3,2.3-6,2.3-8c0-1.4-0.4-2.1-1.1-2.1c-0.5,0-1,0.3-1.6,1c-0.6,0.7-1,1.5-1.4,2.4
				c-0.4,0.9-0.6,1.7-0.6,2.3c0,0.7,0.2,1,0.7,1c0.1,0,0.3,0,0.5-0.1c0,0,0,0,0,0.1c0,0.4-0.5,0.7-1.1,0.7c-1.3,0-2-0.9-2-2.2
				c0-0.8,0.2-1.7,0.7-2.7c0.4-0.9,1-1.7,1.8-2.4c0.8-0.7,1.6-1,2.5-1c1.7,0,2.6,1.2,2.6,3.7c0,1.4-0.3,3.1-0.8,5h0.1l0.2-0.6
				c2.2-6.4,3.8-9.6,4.9-9.6c1,0,1.5,1,1.5,2.9c0,1.4-0.2,3.2-0.7,5.6c-0.2,1.2-0.4,1.9-0.4,2.2h0l0,0c0.3-0.9,0.6-1.6,0.8-2.2
				c0.2-0.6,0.5-1.2,0.8-2c0.3-0.8,0.6-1.5,0.9-2c0.8-1.6,1.8-3.1,2.7-3c0.8,0,1.2,0.8,1.2,2.3c0,1-0.2,2.5-0.5,4.7
				c-0.3,2.2-0.5,3.6-0.5,4.2c0,0.8,0.2,1.2,0.5,1.2c0.5,0,1.3-1.1,1.9-3.1c0.2-1.1,0.5-2,1.1-2.8c0.5-0.8,1.2-1.2,1.9-1.2
				c0.7,0,1.3,0.2,1.6,0.7l0.1-0.6c1,0.1,1.4,0.5,1.4,1.3c0,0.2-0.1,0.6-0.3,1.3c-0.2,0.7-0.3,1.4-0.3,2.1c0,0.9,0.2,1.3,0.5,1.3
				c0.9,0,1.9-1.9,2.6-5.7c-0.6-0.4-0.9-0.9-0.9-1.4c0-0.9,0.5-1.7,1.2-1.7c0.3,0,0.6,0.1,0.9,0.4l-0.4,2.4c0.4,0.1,1.3,0.4,1.8,0.5
				c0.2,0.1,0.5,0.1,0.7,0.2c0.5,0.2,0.8,0.4,0.8,0.6c0,0.1-0.7,2.3-0.7,3.9c0,0.9,0.2,1.4,0.7,1.4c0.3,0,0.7-0.2,1-0.6
				c0.3-0.4,0.6-0.8,0.7-1.3l0.2-0.6c0.2,0,0.3,0.1,0.3,0.3c0,0.6-0.3,1.4-0.8,2.4c-0.6,1-1.2,1.5-1.9,1.5c-1.3,0-2-1-2-2.9
				c0-1.5,0.3-2.8,0.8-4.1C69.7,57.1,69.1,56.9,68.4,56.6L68.4,56.6z M63.5,57.2c-0.1-0.2-0.4-0.3-0.8-0.3c-0.5,0-0.9,0.5-1.4,1.6
				c-0.4,1.1-0.7,2-0.7,2.9c0,0.7,0.2,1.1,0.5,1.1c0.4,0,0.8-0.4,1.1-1.1c0.4-0.7,0.7-1.6,0.9-2.7L63.5,57.2z"/>
		</g>
		<g id="XMLID_2615_">
			<path id="XMLID_2616_" class="st0" d="M75.7,58.5c0.8-1.9,1.7-2.9,2.8-2.9c1,0,1.4,0.4,1.4,1.2c0,1.4-1.4,2.6-3.2,3.3
				c0.2,1.3,0.9,2.1,1.8,2.1c0.9,0,1.8-0.9,2.3-2.7c0.2,0,0.3,0.1,0.3,0.3c0,1-0.5,2.3-1.5,3.3c-0.5,0.5-1.1,0.8-1.7,0.8
				c-0.7,0-1.2-0.3-1.7-1c-0.5-0.7-0.7-1.5-0.8-2.4c-0.4,1.2-0.6,2.6-0.6,4.1c-1.2,0.1-1.4-0.9-1.3-2c0-0.7,0.1-1.7,0.3-2.9
				c0.2-1.2,0.4-2.3,0.6-3.1c0.2-0.8,0.5-2.1,0.8-3.7c0.4-1.6,0.6-2.5,0.6-2.6c1.1,0,1.6,0.7,1.6,1.6c0.1,1.1-1,3.5-1,3.5
				C76,56.7,75.8,57.7,75.7,58.5L75.7,58.5z M77.5,59c0.6-0.5,0.9-0.9,0.9-1.3c0-0.3-0.3-0.4-0.5-0.4c-0.7,0-1.7,0.9-2.4,2.7
				C76.2,59.8,76.9,59.5,77.5,59z"/>
		</g>
		<g id="XMLID_2611_">
			<path id="XMLID_2612_" class="st0" d="M87,59.9c-0.1,1.3-0.6,2.3-1.3,3C85,63.6,84.1,64,83.3,64c-1.5,0-2.7-1.2-2.7-3.4
				c0-1.2,0.3-2.3,0.9-3.4c0.6-1.1,1.3-1.6,2-1.6c0.4,0,1.2,0.5,1.3,0.5c0.7,0,1,0.6,1,1.4c0,0.8-0.2,1.6-0.7,2.4
				c-0.5,0.8-1.1,1.2-1.8,1.2c-0.3,0-0.6-0.1-0.9-0.2c0.1,1.2,0.7,1.8,1.5,1.8c1.1,0,2.3-1.2,2.8-3.2C86.9,59.6,87,59.6,87,59.9
				L87,59.9z M82.5,60.5c0.5,0,1-0.4,1.4-1.2c0.4-0.8,0.6-1.6,0.6-2.2c0-0.5-0.1-0.7-0.3-0.7c-0.3,0-0.7,0.5-1.1,1.4
				c-0.4,0.9-0.6,1.9-0.7,2.7C82.4,60.5,82.5,60.5,82.5,60.5z"/>
		</g>
		<g id="XMLID_2608_">
			<path id="XMLID_2609_" class="st0" d="M91.5,59.9c-0.1,1-0.5,2-1.1,3c-0.6,1-1.3,1.4-2.2,1.4c-1.2,0-1.8-1-1.8-2.9
				c0-1.5,0.3-3.2,0.9-5.3c-0.1,0-0.4,0-0.6,0c-0.5,0-0.7-0.2-0.7-0.6c0-0.1,0-0.3,0.1-0.6c0.5-0.2,1-0.3,1.7-0.4
				c0.4-1.3,0.7-2.1,1-2.6c0.7,0.1,1,0.5,1,1.1c0,0.4-0.1,0.8-0.3,1.3c1.2,0.1,1.9,0.5,1.9,1.3c0,0.1,0,0.2,0,0.4
				c-1.2,0-2-0.1-2.4-0.1c-0.5,1.8-0.7,3.4-0.7,4.8c0,1.2,0.3,1.8,0.8,1.8c0.4,0,0.9-0.3,1.3-0.9c0.4-0.6,0.7-1.3,1-2.2
				C91.4,59.6,91.5,59.6,91.5,59.9L91.5,59.9z"/>
		</g>
	</g>
	<g id="XMLID_2572_">
		<g id="XMLID_2603_">
			<path id="XMLID_2604_" class="st0" d="M28,70.5h-0.8V72h-0.7v-3.9H28c0.2,0,0.4,0,0.6,0.1c0.2,0.1,0.3,0.1,0.4,0.2
				c0.1,0.1,0.2,0.2,0.3,0.4c0.1,0.1,0.1,0.3,0.1,0.5c0,0.3-0.1,0.5-0.2,0.7c-0.1,0.2-0.3,0.3-0.5,0.4l0.9,1.6v0h-0.7L28,70.5z
				 M27.3,70H28c0.1,0,0.2,0,0.3,0c0.1,0,0.2-0.1,0.2-0.1c0.1-0.1,0.1-0.1,0.1-0.2c0-0.1,0-0.2,0-0.3c0-0.1,0-0.2,0-0.3
				c0-0.1-0.1-0.2-0.1-0.2c-0.1-0.1-0.1-0.1-0.2-0.1c-0.1,0-0.2,0-0.3,0h-0.7V70z"/>
		</g>
		<g id="XMLID_2600_">
			<path id="XMLID_2601_" class="st0" d="M34,70.3h-1.6v1.2h1.9V72h-2.6v-3.9h2.6v0.6h-1.9v1.1H34V70.3z"/>
		</g>
		<g id="XMLID_2597_">
			<path id="XMLID_2598_" class="st0" d="M38.6,71c0-0.1,0-0.1,0-0.2c0-0.1-0.1-0.1-0.1-0.2c-0.1-0.1-0.1-0.1-0.3-0.1
				c-0.1,0-0.2-0.1-0.4-0.2c-0.2-0.1-0.4-0.1-0.5-0.2c-0.2-0.1-0.3-0.2-0.4-0.3c-0.1-0.1-0.2-0.2-0.3-0.3c-0.1-0.1-0.1-0.3-0.1-0.4
				c0-0.2,0-0.3,0.1-0.4c0.1-0.1,0.2-0.2,0.3-0.3c0.1-0.1,0.3-0.2,0.4-0.2c0.2-0.1,0.4-0.1,0.6-0.1c0.2,0,0.4,0,0.6,0.1
				c0.2,0.1,0.3,0.2,0.4,0.3c0.1,0.1,0.2,0.2,0.3,0.4c0.1,0.1,0.1,0.3,0.1,0.5h-0.7c0-0.1,0-0.2,0-0.3c0-0.1-0.1-0.2-0.1-0.2
				c-0.1-0.1-0.1-0.1-0.2-0.1c-0.1,0-0.2,0-0.3,0c-0.1,0-0.2,0-0.3,0c-0.1,0-0.2,0.1-0.2,0.1c-0.1,0-0.1,0.1-0.1,0.2
				c0,0.1,0,0.1,0,0.2c0,0.1,0.1,0.3,0.2,0.4c0.1,0.1,0.3,0.2,0.6,0.3c0.2,0.1,0.4,0.1,0.6,0.2c0.2,0.1,0.3,0.2,0.4,0.3
				c0.1,0.1,0.2,0.2,0.2,0.3c0.1,0.1,0.1,0.3,0.1,0.4c0,0.2,0,0.3-0.1,0.4c-0.1,0.1-0.2,0.2-0.3,0.3c-0.1,0.1-0.3,0.2-0.4,0.2
				c-0.2,0-0.4,0.1-0.6,0.1c-0.2,0-0.4,0-0.6-0.1c-0.2-0.1-0.3-0.1-0.5-0.2c-0.1-0.1-0.3-0.2-0.4-0.4c-0.1-0.2-0.1-0.3-0.1-0.5H37
				c0,0.1,0,0.2,0.1,0.3c0,0.1,0.1,0.2,0.2,0.2c0.1,0.1,0.2,0.1,0.3,0.1c0.1,0,0.2,0,0.3,0c0.2,0,0.4,0,0.5-0.1
				C38.5,71.3,38.6,71.2,38.6,71z"/>
		</g>
		<g id="XMLID_2594_">
			<path id="XMLID_2595_" class="st0" d="M44.4,68.6h-1.2V72h-0.7v-3.4h-1.2v-0.6h3.1V68.6z"/>
		</g>
		<g id="XMLID_2590_">
			<path id="XMLID_2591_" class="st0" d="M48.5,71.1h-1.5L46.6,72h-0.7l1.5-3.9H48l1.5,3.9h-0.7L48.5,71.1z M47.1,70.6h1.1l-0.6-1.6
				L47.1,70.6z"/>
		</g>
		<g id="XMLID_2587_">
			<path id="XMLID_2588_" class="st0" d="M54.5,68.1v2.6c0,0.2,0,0.4-0.1,0.6c-0.1,0.2-0.2,0.3-0.3,0.4c-0.1,0.1-0.3,0.2-0.5,0.3
				c-0.2,0.1-0.4,0.1-0.6,0.1c-0.2,0-0.4,0-0.6-0.1c-0.2-0.1-0.3-0.1-0.5-0.3c-0.1-0.1-0.2-0.3-0.3-0.4c-0.1-0.2-0.1-0.4-0.1-0.6
				v-2.6h0.7v2.6c0,0.1,0,0.3,0.1,0.4c0,0.1,0.1,0.2,0.2,0.3c0.1,0.1,0.2,0.1,0.2,0.1c0.1,0,0.2,0,0.3,0c0.1,0,0.2,0,0.3,0
				c0.1,0,0.2-0.1,0.2-0.1c0.1-0.1,0.1-0.2,0.2-0.3c0-0.1,0.1-0.2,0.1-0.4v-2.6H54.5z"/>
		</g>
		<g id="XMLID_2583_">
			<path id="XMLID_2584_" class="st0" d="M58.3,70.5h-0.8V72h-0.7v-3.9h1.4c0.2,0,0.4,0,0.6,0.1c0.2,0.1,0.3,0.1,0.4,0.2
				c0.1,0.1,0.2,0.2,0.3,0.4c0.1,0.1,0.1,0.3,0.1,0.5c0,0.3-0.1,0.5-0.2,0.7c-0.1,0.2-0.3,0.3-0.5,0.4l0.9,1.6v0h-0.7L58.3,70.5z
				 M57.5,70h0.7c0.1,0,0.2,0,0.3,0c0.1,0,0.2-0.1,0.2-0.1c0.1-0.1,0.1-0.1,0.1-0.2c0-0.1,0-0.2,0-0.3c0-0.1,0-0.2,0-0.3
				c0-0.1-0.1-0.2-0.1-0.2c-0.1-0.1-0.1-0.1-0.2-0.1c-0.1,0-0.2,0-0.3,0h-0.7V70z"/>
		</g>
		<g id="XMLID_2579_">
			<path id="XMLID_2580_" class="st0" d="M64.2,71.1h-1.5L62.3,72h-0.7l1.5-3.9h0.6l1.5,3.9h-0.7L64.2,71.1z M62.9,70.6H64l-0.6-1.6
				L62.9,70.6z"/>
		</g>
		<g id="XMLID_2576_">
			<path id="XMLID_2577_" class="st0" d="M70.5,72h-0.7L68,69.2V72h-0.7v-3.9H68l1.8,2.8v-2.8h0.7V72z"/>
		</g>
		<g id="XMLID_2573_">
			<path id="XMLID_2574_" class="st0" d="M75.7,68.6h-1.2V72h-0.7v-3.4h-1.2v-0.6h3.1V68.6z"/>
		</g>
	</g>
</g>
</svg>
